<?xml version="1.0" encoding="iso-8859-1"?>
<!-- Generator: Adobe Illustrator 19.0.0, SVG Export Plug-In . SVG Version: 6.00 Build 0)  -->
<svg version="1.1" id="Capa_1" xmlns="http://www.w3.org/2000/svg" xmlns:xlink="http://www.w3.org/1999/xlink" x="0px" y="0px"
	 viewBox="0 0 412.735 412.735" style="enable-background:new 0 0 412.735 412.735;" xml:space="preserve">
<path style="fill:#D4E1F4;" d="M406.956,148.898v232.49c0,17.241-14.106,31.347-31.347,31.347H37.062
	c-17.241,0-31.347-14.106-31.347-31.347v-232.49H406.956z"/>
<path style="fill:#00ACEA;" d="M377.699,49.633H34.972C19.299,49.11,6.238,61.127,5.715,76.8c0,1.045,0,1.567,0,2.612v69.486
	h401.241V79.412c1.045-15.673-10.971-28.735-26.645-29.78C379.266,49.633,378.744,49.633,377.699,49.633z"/>
<g>
	<polygon style="fill:#00EFD1;" points="284.703,258.09 242.907,298.318 252.834,355.788 201.111,328.62 149.389,355.788 
		159.315,298.318 117.519,258.09 175.511,249.208 201.111,196.963 226.711,249.208 	"/>
	<path style="fill:#00EFD1;" d="M330.156,48.065v23.51c0,5.747-4.702,10.449-10.449,10.449h-30.824
		c-5.747,0-10.449-4.702-10.449-10.449V10.449C278.434,4.702,283.136,0,288.883,0h30.824c5.747,0,10.449,4.702,10.449,10.449V48.065
		z"/>
	<path style="fill:#00EFD1;" d="M134.238,48.065v23.51c0,5.747-4.702,10.449-10.449,10.449H92.964
		c-5.747,0-10.449-4.702-10.449-10.449V10.449C82.515,4.702,87.217,0,92.964,0h30.824c5.747,0,10.449,4.702,10.449,10.449V48.065z"
		/>
</g>
<g>
</g>
<g>
</g>
<g>
</g>
<g>
</g>
<g>
</g>
<g>
</g>
<g>
</g>
<g>
</g>
<g>
</g>
<g>
</g>
<g>
</g>
<g>
</g>
<g>
</g>
<g>
</g>
<g>
</g>
</svg>
